<?xml version="1.0" encoding="UTF-8" standalone="no"?>
<!DOCTYPE svg PUBLIC "-//W3C//DTD SVG 1.1//EN" "http://www.w3.org/Graphics/SVG/1.1/DTD/svg11.dtd">
<svg width="100%" height="100%" viewBox="0 0 500 500" version="1.1" xmlns="http://www.w3.org/2000/svg" xmlns:xlink="http://www.w3.org/1999/xlink" xml:space="preserve" style="fill-rule:evenodd;clip-rule:evenodd;stroke-linejoin:round;stroke-miterlimit:1.41421;">
    <g>
        <g transform="matrix(1.27161,0,0,1.27161,0.591822,-2.22186)">
            <g id="XMLID_19_4_9_" transform="matrix(0.0283393,0,0,0.0283393,8.30892,1.27307)">
                <path d="M5055.8,6967.5C5055.8,6368.5 5076,5767.5 5047.7,5170.6C5031.5,4818.5 5347.2,4549.4 5721.5,4782.1C6737.3,5409.4 7777.4,6000.3 8805.4,6607.4C9153.5,6811.8 9157.5,7135.5 8813.5,7339.9C7779.5,7951 6743.4,8560.1 5705.3,9169.2C5339,9383.7 5055.7,9217.8 5053.7,8788.8C5053.7,8179.6 5055.8,7574.5 5055.8,6967.5Z" style="fill:white;fill-opacity:0.75;fill-rule:nonzero;"/>
            </g>
            <g id="XMLID_19_5_9_" transform="matrix(0.0283393,0,0,0.0283393,8.30892,1.27307)">
                <path d="M5055.8,6967.5C5055.8,6368.5 5076,5767.5 5047.7,5170.6C5031.5,4818.5 5347.2,4549.4 5721.5,4782.1C6737.3,5409.4 7777.4,6000.3 8805.4,6607.4C9153.5,6811.8 9157.5,7135.5 8813.5,7339.9C7779.5,7951 6743.4,8560.1 5705.3,9169.2C5339,9383.7 5055.7,9217.8 5053.7,8788.8C5053.7,8179.6 5055.8,7574.5 5055.8,6967.5Z" style="fill:white;fill-opacity:0.75;fill-rule:nonzero;"/>
            </g>
            <g id="XMLID_19_6_9_" transform="matrix(0.0283393,0,0,0.0283393,8.30892,1.27307)">
                <path d="M5055.8,6967.5C5055.8,6368.5 5076,5767.5 5047.7,5170.6C5031.5,4818.5 5347.2,4549.4 5721.5,4782.1C6737.3,5409.4 7777.4,6000.3 8805.4,6607.4C9153.5,6811.8 9157.5,7135.5 8813.5,7339.9C7779.5,7951 6743.4,8560.1 5705.3,9169.2C5339,9383.7 5055.7,9217.8 5053.7,8788.8C5053.7,8179.6 5055.8,7574.5 5055.8,6967.5Z" style="fill:white;fill-opacity:0.75;fill-rule:nonzero;"/>
            </g>
            <g id="XMLID_19_7_9_" transform="matrix(0.0283393,0,0,0.0283393,8.30892,1.27307)">
                <path d="M5055.8,6967.5C5055.8,6368.5 5076,5767.5 5047.7,5170.6C5031.5,4818.5 5347.2,4549.4 5721.5,4782.1C6737.3,5409.4 7777.4,6000.3 8805.4,6607.4C9153.5,6811.8 9157.5,7135.5 8813.5,7339.9C7779.5,7951 6743.4,8560.1 5705.3,9169.2C5339,9383.7 5055.7,9217.8 5053.7,8788.8C5053.7,8179.6 5055.8,7574.5 5055.8,6967.5Z" style="fill:white;fill-opacity:0.75;fill-rule:nonzero;"/>
            </g>
        </g>
        <path d="M254.217,29.001L254.933,29.005L255.649,29.01L256.364,29.018L257.078,29.028L257.793,29.041L258.506,29.056L259.219,29.072L259.932,29.092L260.644,29.113L261.355,29.137L262.066,29.163L262.777,29.191L263.486,29.221L264.196,29.254L264.904,29.289L265.613,29.326L266.32,29.365L267.027,29.407L267.733,29.45L268.439,29.496L269.145,29.544L269.849,29.595L270.553,29.647L271.257,29.702L271.96,29.759L272.662,29.818L273.364,29.879L274.065,29.943L274.765,30.008L275.465,30.076L276.164,30.146L276.863,30.218L277.561,30.293L278.258,30.369L278.955,30.448L279.651,30.529L280.346,30.611L281.041,30.697L281.735,30.784L282.429,30.873L283.122,30.965L283.814,31.058L284.505,31.154L285.196,31.252L285.886,31.352L286.576,31.454L287.264,31.558L287.953,31.665L288.64,31.773L289.327,31.884L290.013,31.997L290.698,32.111L291.383,32.228L292.067,32.347L292.75,32.468L293.432,32.591L294.114,32.717L294.795,32.844L295.476,32.973L296.155,33.105L296.834,33.238L297.512,33.374L298.19,33.512L298.866,33.651L299.542,33.793L300.217,33.937L300.892,34.083L301.566,34.231L302.238,34.381L302.911,34.533L303.582,34.687L304.253,34.843L304.922,35.001L305.591,35.161L306.26,35.323L306.927,35.487L307.594,35.654L308.26,35.822L308.925,35.992L309.589,36.164L310.253,36.338L310.916,36.515L311.577,36.693L312.239,36.873L312.899,37.055L313.558,37.239L314.217,37.425L314.875,37.614L315.532,37.804L316.188,37.996L316.843,38.19L317.498,38.386L318.151,38.584L318.804,38.783L319.456,38.985L320.107,39.189L320.757,39.395L321.406,39.602L322.055,39.812L322.703,40.024L323.349,40.237L323.995,40.453L324.64,40.67L325.284,40.889L325.927,41.11L326.57,41.333L327.211,41.558L327.852,41.785L328.491,42.014L329.13,42.245L329.768,42.477L330.404,42.712L331.041,42.948L331.676,43.187L332.31,43.427L332.943,43.669L333.575,43.913L334.206,44.158L334.837,44.406L335.466,44.656L336.095,44.907L336.722,45.16L337.349,45.415L337.975,45.672L338.599,45.931L339.223,46.192L339.846,46.454L340.468,46.718L341.088,46.985L341.708,47.253L342.327,47.522L342.945,47.794L343.562,48.067L344.178,48.343L344.793,48.62L345.407,48.899L346.02,49.179L346.632,49.462L347.243,49.746L347.853,50.032L348.462,50.32L349.07,50.61L349.676,50.901L350.282,51.195L350.887,51.49L351.491,51.786L352.094,52.085L352.695,52.385L353.296,52.687L353.896,52.991L354.494,53.297L355.092,53.604L355.688,53.913L356.284,54.224L356.878,54.537L357.471,54.851L358.064,55.167L358.655,55.485L359.245,55.805L359.834,56.126L360.422,56.449L361.009,56.774L361.594,57.1L362.179,57.429L362.763,57.758L363.345,58.09L363.926,58.423L364.507,58.758L365.086,59.095L365.664,59.433L366.241,59.774L366.817,60.115L367.391,60.459L367.965,60.804L368.538,61.151L369.109,61.499L369.679,61.849L370.248,62.201L370.816,62.554L371.383,62.91L371.948,63.266L372.513,63.625L373.076,63.985L373.638,64.347L374.199,64.71L374.759,65.075L375.318,65.442L375.875,65.81L376.431,66.18L376.986,66.551L377.54,66.924L378.093,67.299L378.645,67.676L379.195,68.054L379.744,68.433L380.292,68.814L380.839,69.197L381.384,69.582L381.929,69.968L382.472,70.355L383.014,70.744L383.554,71.135L384.094,71.527L384.632,71.921L385.169,72.317L385.705,72.714L386.239,73.113L386.773,73.513L387.305,73.915L387.836,74.318L388.365,74.723L388.894,75.129L389.421,75.537L389.946,75.946L390.471,76.358L390.994,76.77L391.516,77.184L392.037,77.6L392.556,78.017L393.074,78.436L393.591,78.856L394.107,79.278L394.621,79.701L395.134,80.126L395.646,80.552L396.156,80.98L396.666,81.409L397.173,81.839L397.68,82.272L398.185,82.705L398.689,83.141L399.191,83.577L399.693,84.015L400.193,84.455L400.691,84.896L401.188,85.339L401.684,85.783L402.179,86.228L402.672,86.675L403.164,87.124L403.654,87.574L404.143,88.025L404.631,88.478L405.118,88.932L405.603,89.388L406.086,89.845L406.569,90.303L407.05,90.763L407.529,91.224L408.008,91.687L408.484,92.151L408.96,92.617L409.434,93.084L409.906,93.553L410.378,94.022L410.847,94.494L411.316,94.966L411.783,95.44L412.249,95.916L412.713,96.393L413.175,96.871L413.637,97.35L414.097,97.831L414.555,98.314L415.013,98.797L415.468,99.282L415.922,99.769L416.375,100.257L416.826,100.746L417.276,101.236L417.725,101.728L418.172,102.221L418.617,102.716L419.061,103.212L419.504,103.709L419.945,104.207L420.385,104.707L420.823,105.209L421.259,105.711L421.695,106.215L422.128,106.72L422.56,107.227L422.991,107.734L423.42,108.244L423.848,108.754L424.275,109.266L424.699,109.779L425.122,110.293L425.544,110.809L425.964,111.326L426.383,111.844L426.8,112.363L427.216,112.884L427.63,113.406L428.042,113.929L428.453,114.454L428.863,114.979L429.271,115.506L429.677,116.035L430.082,116.564L430.486,117.095L430.887,117.627L431.287,118.16L431.686,118.695L432.083,119.231L432.479,119.768L432.873,120.306L433.265,120.845L433.656,121.386L434.045,121.928L434.432,122.471L434.818,123.016L435.203,123.561L435.586,124.108L435.967,124.656L436.346,125.205L436.724,125.756L437.101,126.307L437.475,126.86L437.849,127.414L438.22,127.969L438.59,128.525L438.958,129.083L439.325,129.641L439.69,130.201L440.053,130.762L440.415,131.324L440.775,131.887L441.134,132.452L441.49,133.017L441.845,133.584L442.199,134.152L442.551,134.721L442.901,135.291L443.249,135.862L443.596,136.435L443.941,137.009L444.285,137.583L444.626,138.159L444.967,138.736L445.305,139.314L445.642,139.893L445.977,140.474L446.31,141.055L446.641,141.637L446.971,142.221L447.3,142.806L447.626,143.391L447.951,143.978L448.274,144.566L448.595,145.155L448.915,145.745L449.233,146.336L449.549,146.929L449.863,147.522L450.176,148.116L450.487,148.712L450.796,149.308L451.103,149.906L451.409,150.504L451.713,151.104L452.015,151.705L452.315,152.307L452.614,152.909L452.91,153.513L453.205,154.118L453.499,154.724L453.79,155.331L454.08,155.939L454.368,156.547L454.654,157.157L454.938,157.768L455.221,158.38L455.501,158.993L455.78,159.607L456.057,160.222L456.333,160.838L456.606,161.455L456.878,162.073L457.147,162.692L457.415,163.312L457.682,163.932L457.946,164.554L458.208,165.177L458.469,165.801L458.728,166.425L458.985,167.051L459.24,167.677L459.493,168.305L459.745,168.934L459.994,169.563L460.242,170.194L460.487,170.825L460.731,171.457L460.973,172.09L461.213,172.724L461.452,173.359L461.688,173.996L461.923,174.632L462.155,175.27L462.386,175.909L462.615,176.549L462.842,177.189L463.067,177.83L463.29,178.473L463.511,179.116L463.73,179.76L463.947,180.405L464.163,181.051L464.376,181.697L464.588,182.345L464.797,182.993L465.005,183.643L465.211,184.293L465.415,184.944L465.617,185.596L465.816,186.249L466.014,186.902L466.21,187.557L466.404,188.212L466.596,188.868L466.787,189.525L466.975,190.183L467.161,190.842L467.345,191.501L467.527,192.161L467.707,192.822L467.885,193.484L468.062,194.147L468.236,194.81L468.408,195.475L468.578,196.14L468.746,196.806L468.913,197.473L469.077,198.14L469.239,198.808L469.399,199.478L469.557,200.148L469.713,200.818L469.867,201.489L470.019,202.162L470.169,202.835L470.317,203.508L470.463,204.183L470.607,204.858L470.749,205.534L470.888,206.21L471.026,206.888L471.162,207.566L471.295,208.245L471.427,208.924L471.556,209.605L471.683,210.286L471.809,210.968L471.932,211.65L472.053,212.333L472.172,213.017L472.289,213.702L472.403,214.387L472.516,215.073L472.627,215.76L472.735,216.448L472.842,217.136L472.946,217.824L473.048,218.514L473.148,219.204L473.246,219.895L473.342,220.586L473.435,221.279L473.527,221.971L473.616,222.665L473.703,223.359L473.789,224.054L473.871,224.749L473.952,225.445L474.031,226.142L474.107,226.839L474.182,227.537L474.254,228.236L474.324,228.935L474.392,229.635L474.457,230.335L474.521,231.036L474.582,231.738L474.641,232.44L474.698,233.143L474.753,233.847L474.805,234.551L474.856,235.255L474.904,235.961L474.95,236.666L474.993,237.373L475.035,238.08L475.074,238.788L475.111,239.496L475.146,240.204L475.179,240.914L475.209,241.623L475.237,242.334L475.263,243.045L475.287,243.756L475.308,244.468L475.328,245.181L475.345,245.894L475.359,246.608L475.372,247.321L475.382,248.036L475.39,248.751L475.395,249.467L475.399,250.183L475.4,250.9L475.399,251.617L475.395,252.333L475.39,253.049L475.382,253.764L475.372,254.479L475.359,255.192L475.345,255.906L475.328,256.619L475.308,257.332L475.287,258.044L475.263,258.755L475.237,259.466L475.209,260.177L475.179,260.886L475.146,261.596L475.111,262.304L475.074,263.012L475.035,263.72L474.993,264.427L474.95,265.134L474.904,265.839L474.856,266.545L474.805,267.249L474.753,267.953L474.698,268.657L474.641,269.36L474.582,270.062L474.521,270.764L474.457,271.465L474.392,272.165L474.324,272.865L474.254,273.564L474.182,274.263L474.107,274.961L474.031,275.658L473.952,276.355L473.871,277.051L473.789,277.746L473.703,278.441L473.616,279.135L473.527,279.829L473.435,280.521L473.342,281.214L473.246,281.905L473.148,282.596L473.048,283.286L472.946,283.976L472.842,284.664L472.735,285.352L472.627,286.04L472.516,286.727L472.403,287.413L472.289,288.098L472.172,288.783L472.053,289.467L471.932,290.15L471.809,290.832L471.683,291.514L471.556,292.195L471.427,292.876L471.295,293.555L471.162,294.234L471.026,294.912L470.888,295.59L470.749,296.266L470.607,296.942L470.463,297.617L470.317,298.292L470.169,298.965L470.019,299.638L469.867,300.311L469.713,300.982L469.557,301.653L469.399,302.322L469.239,302.992L469.077,303.66L468.913,304.327L468.746,304.994L468.578,305.66L468.408,306.325L468.236,306.99L468.062,307.653L467.885,308.316L467.707,308.978L467.527,309.639L467.345,310.299L467.161,310.958L466.975,311.617L466.787,312.275L466.596,312.932L466.404,313.588L466.21,314.243L466.014,314.898L465.816,315.551L465.617,316.204L465.415,316.856L465.211,317.507L465.005,318.157L464.798,318.807L464.588,319.455L464.376,320.103L464.163,320.749L463.947,321.395L463.73,322.04L463.511,322.684L463.29,323.327L463.067,323.97L462.842,324.611L462.615,325.251L462.386,325.891L462.155,326.53L461.923,327.168L461.688,327.804L461.452,328.441L461.213,329.076L460.973,329.71L460.731,330.343L460.487,330.975L460.242,331.606L459.994,332.237L459.744,332.866L459.493,333.495L459.24,334.122L458.985,334.749L458.728,335.375L458.469,335.999L458.208,336.623L457.946,337.246L457.682,337.868L457.415,338.488L457.147,339.108L456.878,339.727L456.606,340.345L456.333,340.962L456.057,341.578L455.78,342.193L455.501,342.807L455.221,343.42L454.938,344.032L454.654,344.643L454.368,345.253L454.08,345.861L453.79,346.469L453.499,347.076L453.205,347.682L452.91,348.287L452.614,348.891L452.315,349.494L452.015,350.095L451.713,350.696L451.409,351.296L451.103,351.894L450.796,352.492L450.487,353.088L450.176,353.684L449.863,354.278L449.549,354.871L449.233,355.464L448.915,356.055L448.595,356.645L448.274,357.234L447.951,357.822L447.626,358.409L447.3,358.994L446.971,359.579L446.642,360.163L446.31,360.745L445.977,361.327L445.642,361.907L445.305,362.486L444.967,363.064L444.626,363.641L444.285,364.217L443.941,364.791L443.596,365.365L443.249,365.938L442.901,366.509L442.551,367.079L442.199,367.648L441.846,368.216L441.49,368.783L441.134,369.348L440.775,369.913L440.415,370.476L440.053,371.038L439.69,371.599L439.325,372.159L438.958,372.717L438.59,373.275L438.22,373.831L437.849,374.386L437.475,374.941L437.101,375.493L436.724,376.045L436.346,376.595L435.967,377.144L435.586,377.692L435.203,378.239L434.818,378.784L434.432,379.329L434.045,379.872L433.656,380.414L433.265,380.955L432.872,381.494L432.479,382.032L432.083,382.569L431.686,383.105L431.287,383.639L430.887,384.173L430.486,384.705L430.082,385.236L429.677,385.765L429.271,386.294L428.863,386.821L428.453,387.346L428.042,387.871L427.63,388.394L427.216,388.916L426.8,389.437L426.383,389.956L425.964,390.475L425.544,390.991L425.122,391.507L424.699,392.021L424.275,392.534L423.848,393.046L423.42,393.556L422.991,394.066L422.56,394.573L422.128,395.08L421.694,395.585L421.259,396.089L420.823,396.591L420.385,397.093L419.945,397.593L419.504,398.091L419.061,398.588L418.617,399.084L418.172,399.579L417.725,400.072L417.276,400.564L416.826,401.054L416.375,401.543L415.922,402.031L415.468,402.518L415.013,403.003L414.555,403.486L414.097,403.969L413.637,404.45L413.175,404.929L412.713,405.407L412.249,405.884L411.783,406.36L411.316,406.834L410.847,407.306L410.378,407.778L409.906,408.247L409.434,408.716L408.96,409.183L408.484,409.649L408.007,410.113L407.529,410.576L407.05,411.037L406.569,411.497L406.086,411.955L405.603,412.412L405.118,412.868L404.631,413.322L404.143,413.775L403.654,414.226L403.164,414.676L402.672,415.125L402.179,415.572L401.684,416.017L401.188,416.461L400.691,416.904L400.193,417.345L399.693,417.785L399.191,418.223L398.689,418.659L398.185,419.095L397.68,419.528L397.173,419.96L396.666,420.391L396.156,420.82L395.646,421.248L395.134,421.675L394.621,422.099L394.107,422.522L393.591,422.944L393.075,423.364L392.556,423.783L392.037,424.2L391.516,424.616L390.994,425.03L390.471,425.442L389.946,425.854L389.421,426.263L388.893,426.671L388.365,427.077L387.836,427.482L387.305,427.886L386.773,428.287L386.239,428.687L385.705,429.086L385.169,429.483L384.632,429.879L384.094,430.272L383.554,430.665L383.014,431.056L382.472,431.445L381.929,431.832L381.384,432.218L380.839,432.603L380.292,432.986L379.744,433.367L379.195,433.746L378.645,434.124L378.093,434.501L377.54,434.876L376.986,435.249L376.431,435.62L375.875,435.99L375.318,436.358L374.759,436.725L374.199,437.09L373.638,437.453L373.076,437.815L372.513,438.175L371.948,438.534L371.383,438.89L370.816,439.246L370.248,439.599L369.679,439.951L369.109,440.301L368.538,440.649L367.965,440.996L367.391,441.341L366.817,441.685L366.241,442.026L365.664,442.367L365.086,442.705L364.507,443.042L363.926,443.377L363.345,443.71L362.763,444.042L362.179,444.371L361.594,444.7L361.009,445.026L360.422,445.351L359.834,445.674L359.245,445.995L358.655,446.315L358.064,446.633L357.471,446.949L356.878,447.263L356.284,447.576L355.688,447.887L355.092,448.196L354.494,448.503L353.895,448.809L353.296,449.113L352.695,449.415L352.094,449.715L351.491,450.014L350.887,450.31L350.282,450.605L349.676,450.899L349.07,451.19L348.461,451.48L347.853,451.768L347.243,452.054L346.632,452.338L346.02,452.621L345.407,452.901L344.793,453.18L344.178,453.457L343.562,453.733L342.945,454.006L342.327,454.278L341.708,454.548L341.088,454.815L340.468,455.081L339.846,455.346L339.223,455.608L338.599,455.869L337.975,456.128L337.349,456.385L336.723,456.64L336.095,456.893L335.466,457.144L334.837,457.394L334.207,457.642L333.575,457.887L332.943,458.131L332.31,458.373L331.676,458.613L331.04,458.852L330.404,459.088L329.768,459.323L329.13,459.555L328.491,459.786L327.851,460.015L327.211,460.242L326.57,460.467L325.927,460.69L325.284,460.911L324.64,461.13L323.995,461.347L323.349,461.563L322.702,461.776L322.055,461.988L321.407,462.198L320.757,462.405L320.107,462.611L319.456,462.815L318.804,463.017L318.151,463.216L317.498,463.414L316.843,463.61L316.188,463.804L315.532,463.996L314.875,464.186L314.217,464.375L313.558,464.561L312.899,464.745L312.239,464.927L311.577,465.107L310.916,465.285L310.253,465.462L309.589,465.636L308.925,465.808L308.26,465.978L307.594,466.146L306.927,466.313L306.26,466.477L305.592,466.639L304.922,466.799L304.252,466.957L303.582,467.113L302.911,467.267L302.238,467.419L301.565,467.569L300.892,467.717L300.217,467.863L299.542,468.007L298.866,468.149L298.19,468.288L297.512,468.426L296.834,468.562L296.155,468.695L295.476,468.827L294.795,468.956L294.114,469.083L293.432,469.209L292.75,469.332L292.067,469.453L291.383,469.572L290.698,469.689L290.013,469.803L289.327,469.916L288.64,470.027L287.952,470.135L287.264,470.242L286.576,470.346L285.886,470.448L285.196,470.548L284.505,470.646L283.814,470.742L283.121,470.835L282.429,470.927L281.735,471.016L281.041,471.103L280.346,471.189L279.651,471.271L278.955,471.352L278.258,471.431L277.561,471.507L276.863,471.582L276.164,471.654L275.465,471.724L274.765,471.792L274.065,471.857L273.364,471.921L272.662,471.982L271.96,472.041L271.257,472.098L270.553,472.153L269.849,472.205L269.144,472.256L268.439,472.304L267.734,472.35L267.027,472.393L266.32,472.435L265.612,472.474L264.904,472.511L264.196,472.546L263.486,472.579L262.777,472.609L262.066,472.637L261.355,472.663L260.644,472.687L259.932,472.708L259.219,472.728L258.506,472.745L257.792,472.759L257.079,472.772L256.364,472.782L255.649,472.79L254.933,472.795L254.217,472.799L253.5,472.8L252.783,472.799L252.067,472.795L251.351,472.79L250.636,472.782L249.921,472.772L249.208,472.759L248.494,472.745L247.781,472.728L247.068,472.708L246.356,472.687L245.645,472.663L244.934,472.637L244.223,472.609L243.514,472.579L242.804,472.546L242.096,472.511L241.388,472.474L240.68,472.435L239.973,472.393L239.266,472.35L238.561,472.304L237.856,472.256L237.151,472.205L236.447,472.153L235.743,472.098L235.04,472.041L234.338,471.982L233.636,471.921L232.935,471.857L232.235,471.792L231.535,471.724L230.836,471.654L230.137,471.582L229.439,471.507L228.742,471.431L228.045,471.352L227.349,471.271L226.654,471.189L225.959,471.103L225.265,471.016L224.571,470.927L223.879,470.835L223.186,470.742L222.495,470.646L221.804,470.548L221.114,470.448L220.424,470.346L219.736,470.242L219.048,470.135L218.36,470.027L217.673,469.916L216.987,469.803L216.302,469.689L215.617,469.572L214.933,469.453L214.25,469.332L213.568,469.209L212.886,469.083L212.205,468.956L211.524,468.827L210.845,468.695L210.166,468.562L209.488,468.426L208.81,468.288L208.134,468.149L207.458,468.007L206.783,467.863L206.108,467.717L205.435,467.569L204.762,467.419L204.089,467.267L203.418,467.113L202.748,466.957L202.078,466.799L201.408,466.639L200.74,466.477L200.073,466.313L199.406,466.146L198.74,465.978L198.075,465.808L197.411,465.636L196.747,465.462L196.084,465.285L195.423,465.107L194.761,464.927L194.101,464.745L193.442,464.561L192.783,464.375L192.125,464.186L191.468,463.996L190.812,463.804L190.157,463.61L189.502,463.414L188.849,463.216L188.196,463.017L187.544,462.815L186.893,462.611L186.243,462.405L185.593,462.197L184.945,461.988L184.298,461.776L183.651,461.563L183.005,461.347L182.36,461.13L181.716,460.911L181.073,460.69L180.43,460.467L179.789,460.242L179.149,460.015L178.509,459.786L177.87,459.555L177.232,459.323L176.596,459.088L175.96,458.852L175.324,458.613L174.69,458.373L174.057,458.131L173.425,457.887L172.793,457.642L172.163,457.394L171.534,457.144L170.905,456.893L170.278,456.64L169.651,456.385L169.025,456.128L168.401,455.869L167.777,455.608L167.154,455.346L166.532,455.082L165.912,454.815L165.292,454.548L164.673,454.278L164.055,454.006L163.438,453.733L162.822,453.457L162.207,453.18L161.593,452.901L160.98,452.621L160.368,452.338L159.757,452.054L159.147,451.768L158.539,451.48L157.93,451.19L157.324,450.899L156.718,450.605L156.113,450.31L155.509,450.014L154.906,449.715L154.305,449.415L153.704,449.113L153.104,448.809L152.506,448.503L151.908,448.196L151.312,447.887L150.716,447.576L150.122,447.263L149.529,446.949L148.936,446.633L148.345,446.315L147.755,445.995L147.166,445.674L146.578,445.351L145.991,445.026L145.406,444.7L144.821,444.372L144.237,444.042L143.655,443.71L143.073,443.377L142.493,443.042L141.914,442.705L141.336,442.367L140.759,442.026L140.183,441.685L139.609,441.341L139.035,440.996L138.462,440.649L137.891,440.301L137.321,439.951L136.752,439.599L136.184,439.245L135.617,438.89L135.052,438.534L134.487,438.175L133.924,437.815L133.362,437.453L132.801,437.09L132.241,436.725L131.682,436.358L131.125,435.99L130.569,435.62L130.014,435.249L129.46,434.875L128.907,434.501L128.355,434.124L127.805,433.746L127.256,433.367L126.708,432.986L126.161,432.603L125.616,432.218L125.071,431.832L124.528,431.445L123.986,431.056L123.446,430.665L122.906,430.272L122.368,429.878L121.831,429.483L121.295,429.086L120.76,428.687L120.227,428.287L119.695,427.886L119.164,427.482L118.635,427.077L118.106,426.671L117.579,426.263L117.054,425.854L116.529,425.442L116.006,425.03L115.484,424.616L114.963,424.2L114.444,423.783L113.925,423.364L113.409,422.944L112.893,422.522L112.379,422.099L111.866,421.675L111.354,421.248L110.844,420.82L110.334,420.391L109.827,419.96L109.32,419.528L108.815,419.095L108.311,418.659L107.809,418.223L107.307,417.785L106.808,417.345L106.309,416.904L105.812,416.461L105.316,416.017L104.821,415.572L104.328,415.125L103.836,414.676L103.346,414.226L102.857,413.775L102.369,413.322L101.882,412.868L101.397,412.412L100.914,411.955L100.431,411.497L99.95,411.037L99.471,410.576L98.993,410.113L98.516,409.649L98.04,409.183L97.566,408.716L97.094,408.247L96.622,407.778L96.153,407.306L95.684,406.834L95.217,406.36L94.751,405.884L94.287,405.408L93.824,404.929L93.363,404.45L92.903,403.969L92.445,403.486L91.988,403.003L91.532,402.518L91.078,402.031L90.625,401.543L90.174,401.054L89.724,400.564L89.275,400.072L88.828,399.579L88.383,399.084L87.939,398.588L87.496,398.091L87.055,397.593L86.615,397.093L86.177,396.591L85.741,396.089L85.306,395.585L84.872,395.08L84.439,394.573L84.009,394.066L83.58,393.556L83.152,393.046L82.726,392.534L82.301,392.021L81.878,391.507L81.456,390.991L81.036,390.475L80.617,389.956L80.2,389.437L79.784,388.916L79.37,388.394L78.958,387.871L78.546,387.346L78.137,386.821L77.729,386.294L77.323,385.765L76.918,385.236L76.515,384.705L76.113,384.173L75.713,383.639L75.314,383.105L74.917,382.569L74.521,382.032L74.128,381.494L73.735,380.955L73.344,380.414L72.955,379.872L72.568,379.329L72.182,378.784L71.797,378.239L71.415,377.692L71.033,377.144L70.654,376.595L70.276,376.045L69.899,375.493L69.525,374.94L69.151,374.386L68.78,373.831L68.41,373.275L68.042,372.718L67.675,372.159L67.31,371.599L66.947,371.038L66.585,370.476L66.225,369.913L65.866,369.348L65.51,368.783L65.154,368.216L64.801,367.648L64.449,367.079L64.099,366.509L63.751,365.938L63.404,365.365L63.059,364.791L62.715,364.217L62.374,363.641L62.033,363.064L61.695,362.486L61.358,361.907L61.023,361.327L60.69,360.745L60.358,360.163L60.029,359.579L59.7,358.994L59.374,358.409L59.049,357.822L58.726,357.234L58.405,356.645L58.085,356.055L57.767,355.464L57.451,354.871L57.137,354.278L56.824,353.684L56.513,353.088L56.204,352.492L55.897,351.894L55.591,351.296L55.287,350.696L54.985,350.095L54.685,349.494L54.386,348.891L54.09,348.287L53.795,347.682L53.501,347.076L53.21,346.469L52.92,345.862L52.632,345.253L52.346,344.643L52.062,344.032L51.779,343.42L51.499,342.807L51.22,342.193L50.943,341.578L50.667,340.962L50.394,340.345L50.122,339.727L49.853,339.108L49.585,338.489L49.318,337.868L49.054,337.246L48.792,336.623L48.531,335.999L48.272,335.375L48.015,334.749L47.76,334.122L47.507,333.495L47.256,332.866L47.006,332.237L46.758,331.607L46.513,330.975L46.269,330.343L46.027,329.71L45.787,329.076L45.548,328.44L45.312,327.805L45.077,327.168L44.845,326.53L44.614,325.891L44.385,325.252L44.158,324.611L43.933,323.97L43.71,323.327L43.489,322.684L43.27,322.04L43.053,321.395L42.837,320.749L42.624,320.103L42.412,319.455L42.202,318.806L41.995,318.157L41.789,317.507L41.585,316.856L41.383,316.204L41.184,315.551L40.986,314.898L40.79,314.243L40.596,313.588L40.404,312.932L40.214,312.275L40.025,311.617L39.839,310.958L39.655,310.299L39.473,309.639L39.293,308.977L39.115,308.316L38.938,307.653L38.764,306.989L38.592,306.325L38.422,305.66L38.254,304.994L38.087,304.327L37.923,303.66L37.761,302.992L37.601,302.322L37.443,301.653L37.287,300.982L37.133,300.311L36.981,299.638L36.831,298.966L36.683,298.292L36.537,297.617L36.393,296.942L36.251,296.266L36.112,295.59L35.974,294.912L35.838,294.234L35.705,293.555L35.573,292.876L35.444,292.195L35.317,291.514L35.191,290.832L35.068,290.15L34.947,289.467L34.828,288.783L34.711,288.098L34.597,287.413L34.484,286.727L34.373,286.04L34.265,285.352L34.158,284.664L34.054,283.976L33.952,283.286L33.852,282.596L33.754,281.905L33.658,281.214L33.565,280.522L33.473,279.829L33.384,279.135L33.297,278.441L33.211,277.746L33.129,277.051L33.048,276.355L32.969,275.658L32.893,274.961L32.818,274.263L32.746,273.564L32.676,272.865L32.608,272.165L32.543,271.465L32.479,270.764L32.418,270.062L32.359,269.36L32.302,268.657L32.247,267.953L32.195,267.249L32.144,266.545L32.096,265.839L32.05,265.134L32.007,264.427L31.965,263.72L31.926,263.013L31.889,262.304L31.854,261.596L31.821,260.886L31.791,260.177L31.763,259.466L31.737,258.755L31.713,258.044L31.692,257.332L31.672,256.619L31.656,255.906L31.641,255.193L31.628,254.478L31.618,253.764L31.61,253.049L31.605,252.333L31.601,251.617L31.6,250.9L31.601,250.183L31.605,249.467L31.61,248.751L31.618,248.036L31.628,247.322L31.641,246.607L31.656,245.894L31.672,245.181L31.692,244.468L31.713,243.756L31.737,243.045L31.763,242.334L31.791,241.623L31.821,240.914L31.854,240.204L31.889,239.496L31.926,238.787L31.965,238.08L32.007,237.373L32.05,236.666L32.096,235.961L32.144,235.255L32.195,234.551L32.247,233.847L32.302,233.143L32.359,232.44L32.418,231.738L32.479,231.036L32.543,230.335L32.608,229.635L32.676,228.935L32.746,228.236L32.818,227.537L32.893,226.839L32.969,226.142L33.048,225.445L33.129,224.749L33.211,224.054L33.297,223.359L33.384,222.665L33.473,221.971L33.565,221.278L33.658,220.586L33.754,219.895L33.852,219.204L33.952,218.514L34.054,217.824L34.158,217.136L34.265,216.448L34.373,215.76L34.484,215.073L34.597,214.387L34.711,213.702L34.828,213.017L34.947,212.333L35.068,211.65L35.191,210.968L35.317,210.286L35.444,209.605L35.573,208.924L35.705,208.245L35.838,207.566L35.974,206.888L36.112,206.21L36.251,205.534L36.393,204.858L36.537,204.183L36.683,203.508L36.831,202.834L36.981,202.162L37.133,201.489L37.287,200.818L37.443,200.147L37.601,199.478L37.761,198.808L37.923,198.14L38.087,197.473L38.254,196.806L38.422,196.14L38.592,195.475L38.764,194.811L38.938,194.147L39.115,193.484L39.293,192.823L39.473,192.161L39.655,191.501L39.839,190.842L40.025,190.183L40.214,189.525L40.404,188.868L40.596,188.212L40.79,187.557L40.986,186.902L41.184,186.249L41.383,185.596L41.585,184.944L41.789,184.293L41.995,183.643L42.202,182.994L42.412,182.345L42.624,181.697L42.837,181.051L43.053,180.405L43.27,179.76L43.489,179.116L43.71,178.473L43.933,177.83L44.158,177.189L44.385,176.548L44.614,175.909L44.845,175.27L45.077,174.632L45.312,173.995L45.548,173.36L45.787,172.724L46.027,172.09L46.269,171.457L46.513,170.825L46.758,170.194L47.006,169.563L47.256,168.934L47.507,168.305L47.76,167.678L48.015,167.051L48.272,166.425L48.531,165.801L48.792,165.177L49.054,164.554L49.318,163.932L49.585,163.311L49.853,162.692L50.122,162.073L50.394,161.455L50.667,160.838L50.943,160.222L51.22,159.607L51.499,158.993L51.779,158.38L52.062,157.768L52.346,157.157L52.632,156.547L52.92,155.938L53.21,155.331L53.501,154.724L53.795,154.118L54.09,153.513L54.386,152.909L54.685,152.306L54.985,151.705L55.287,151.104L55.591,150.504L55.897,149.906L56.204,149.308L56.513,148.712L56.824,148.116L57.137,147.522L57.451,146.929L57.767,146.336L58.085,145.745L58.405,145.155L58.726,144.566L59.049,143.978L59.374,143.391L59.7,142.806L60.029,142.221L60.358,141.637L60.69,141.055L61.023,140.474L61.358,139.893L61.695,139.314L62.033,138.736L62.374,138.159L62.715,137.583L63.059,137.009L63.404,136.435L63.751,135.863L64.099,135.291L64.449,134.721L64.801,134.152L65.154,133.584L65.51,133.017L65.866,132.452L66.225,131.887L66.585,131.324L66.947,130.762L67.31,130.201L67.675,129.641L68.042,129.082L68.41,128.525L68.78,127.969L69.151,127.414L69.525,126.86L69.899,126.307L70.276,125.755L70.654,125.205L71.033,124.656L71.414,124.108L71.797,123.561L72.182,123.016L72.568,122.471L72.955,121.928L73.344,121.386L73.735,120.846L74.127,120.306L74.521,119.768L74.917,119.231L75.314,118.695L75.713,118.16L76.113,117.627L76.515,117.095L76.918,116.564L77.323,116.035L77.729,115.506L78.137,114.979L78.546,114.454L78.958,113.929L79.37,113.406L79.784,112.884L80.2,112.363L80.617,111.844L81.036,111.325L81.456,110.809L81.878,110.293L82.301,109.779L82.726,109.266L83.152,108.754L83.58,108.244L84.009,107.734L84.439,107.227L84.872,106.72L85.305,106.215L85.741,105.711L86.177,105.209L86.615,104.707L87.055,104.208L87.496,103.709L87.939,103.212L88.383,102.716L88.828,102.221L89.275,101.728L89.724,101.236L90.174,100.746L90.625,100.257L91.078,99.769L91.532,99.282L91.988,98.797L92.445,98.314L92.903,97.831L93.363,97.35L93.824,96.871L94.287,96.393L94.751,95.916L95.217,95.44L95.684,94.966L96.153,94.494L96.622,94.022L97.094,93.553L97.566,93.084L98.04,92.617L98.516,92.151L98.993,91.687L99.471,91.224L99.95,90.763L100.431,90.303L100.914,89.845L101.397,89.388L101.882,88.932L102.369,88.478L102.857,88.025L103.346,87.574L103.836,87.124L104.328,86.675L104.821,86.228L105.316,85.783L105.812,85.339L106.309,84.896L106.808,84.455L107.307,84.015L107.809,83.577L108.311,83.141L108.815,82.705L109.32,82.272L109.827,81.839L110.334,81.409L110.844,80.98L111.354,80.552L111.866,80.126L112.379,79.701L112.893,79.278L113.409,78.856L113.925,78.436L114.444,78.017L114.963,77.6L115.484,77.184L116.006,76.77L116.529,76.358L117.054,75.946L117.579,75.537L118.106,75.129L118.635,74.723L119.164,74.318L119.695,73.914L120.227,73.513L120.76,73.113L121.295,72.714L121.831,72.317L122.368,71.921L122.906,71.528L123.446,71.135L123.986,70.744L124.528,70.355L125.071,69.968L125.616,69.582L126.161,69.197L126.708,68.814L127.256,68.433L127.805,68.054L128.355,67.676L128.907,67.299L129.46,66.925L130.014,66.551L130.569,66.18L131.125,65.81L131.682,65.442L132.241,65.075L132.801,64.71L133.362,64.347L133.924,63.985L134.487,63.625L135.052,63.266L135.617,62.91L136.184,62.554L136.752,62.201L137.321,61.849L137.891,61.499L138.462,61.151L139.035,60.804L139.609,60.459L140.183,60.115L140.759,59.773L141.336,59.433L141.914,59.095L142.493,58.758L143.073,58.423L143.655,58.09L144.237,57.758L144.821,57.429L145.406,57.1L145.991,56.774L146.578,56.449L147.166,56.126L147.755,55.805L148.345,55.485L148.936,55.167L149.529,54.851L150.122,54.537L150.716,54.224L151.312,53.913L151.908,53.604L152.506,53.297L153.104,52.991L153.704,52.687L154.305,52.385L154.906,52.085L155.509,51.786L156.113,51.49L156.718,51.195L157.324,50.901L157.931,50.61L158.538,50.32L159.147,50.032L159.757,49.746L160.368,49.462L160.98,49.179L161.593,48.899L162.207,48.62L162.822,48.343L163.438,48.067L164.055,47.794L164.673,47.522L165.292,47.253L165.911,46.985L166.532,46.718L167.154,46.454L167.777,46.192L168.401,45.931L169.025,45.672L169.651,45.415L170.278,45.16L170.905,44.907L171.534,44.656L172.163,44.406L172.794,44.158L173.425,43.913L174.057,43.669L174.69,43.427L175.324,43.187L175.959,42.948L176.595,42.712L177.232,42.477L177.87,42.245L178.509,42.014L179.148,41.785L179.789,41.558L180.43,41.333L181.073,41.11L181.716,40.889L182.36,40.67L183.005,40.453L183.651,40.237L184.297,40.024L184.945,39.812L185.594,39.602L186.243,39.395L186.893,39.189L187.544,38.985L188.196,38.783L188.849,38.584L189.502,38.386L190.157,38.19L190.812,37.996L191.468,37.804L192.125,37.614L192.783,37.425L193.442,37.239L194.101,37.055L194.761,36.873L195.422,36.693L196.084,36.515L196.747,36.338L197.411,36.164L198.075,35.992L198.74,35.822L199.406,35.654L200.073,35.487L200.74,35.323L201.409,35.161L202.078,35.001L202.747,34.843L203.418,34.687L204.089,34.533L204.762,34.381L205.434,34.231L206.108,34.083L206.783,33.937L207.458,33.793L208.134,33.651L208.81,33.512L209.488,33.374L210.166,33.238L210.845,33.105L211.524,32.973L212.205,32.844L212.886,32.717L213.568,32.591L214.25,32.468L214.933,32.347L215.617,32.228L216.302,32.111L216.987,31.997L217.673,31.884L218.36,31.773L219.048,31.665L219.736,31.558L220.424,31.454L221.114,31.352L221.804,31.252L222.495,31.154L223.186,31.058L223.878,30.965L224.571,30.873L225.265,30.784L225.959,30.697L226.654,30.611L227.349,30.529L228.045,30.448L228.742,30.369L229.439,30.293L230.137,30.218L230.836,30.146L231.535,30.076L232.235,30.008L232.935,29.943L233.636,29.879L234.338,29.818L235.04,29.759L235.743,29.702L236.447,29.647L237.151,29.595L237.855,29.544L238.561,29.496L239.266,29.45L239.973,29.407L240.68,29.365L241.387,29.326L242.096,29.289L242.804,29.254L243.514,29.221L244.223,29.191L244.934,29.163L245.645,29.137L246.356,29.113L247.068,29.092L247.781,29.072L248.494,29.056L249.207,29.041L249.921,29.028L250.636,29.018L251.351,29.01L252.067,29.005L252.783,29.001L253.5,29L254.217,29.001ZM252.847,49.001L252.194,49.004L251.542,49.009L250.89,49.017L250.239,49.026L249.588,49.037L248.938,49.051L248.288,49.066L247.639,49.084L246.99,49.103L246.342,49.125L245.694,49.148L245.047,49.174L244.401,49.202L243.755,49.231L243.11,49.263L242.465,49.297L241.82,49.333L241.177,49.37L240.533,49.41L239.891,49.452L239.249,49.496L238.607,49.542L237.966,49.589L237.326,49.639L236.686,49.691L236.047,49.745L235.408,49.801L234.77,49.858L234.132,49.918L233.495,49.98L232.859,50.044L232.223,50.109L231.588,50.177L230.954,50.246L230.32,50.318L229.686,50.392L229.054,50.467L228.421,50.544L227.79,50.624L227.159,50.705L226.529,50.788L225.899,50.874L225.27,50.961L224.642,51.05L224.014,51.141L223.387,51.234L222.76,51.328L222.134,51.425L221.509,51.524L220.884,51.624L220.26,51.727L219.637,51.831L219.014,51.938L218.392,52.046L217.771,52.156L217.15,52.268L216.53,52.382L215.911,52.498L215.292,52.615L214.674,52.735L214.057,52.856L213.44,52.98L212.824,53.105L212.209,53.232L211.594,53.361L210.98,53.492L210.367,53.624L209.754,53.759L209.143,53.895L208.531,54.033L207.921,54.173L207.311,54.315L206.702,54.459L206.094,54.605L205.486,54.752L204.879,54.901L204.273,55.052L203.668,55.205L203.063,55.36L202.459,55.517L201.856,55.675L201.253,55.835L200.652,55.997L200.051,56.161L199.45,56.327L198.851,56.494L198.252,56.663L197.654,56.834L197.057,57.007L196.46,57.182L195.864,57.358L195.269,57.536L194.675,57.716L194.082,57.898L193.489,58.081L192.897,58.267L192.306,58.454L191.716,58.642L191.126,58.833L190.537,59.025L189.949,59.219L189.362,59.415L188.776,59.613L188.19,59.812L187.605,60.013L187.021,60.216L186.438,60.421L185.856,60.627L185.274,60.835L184.694,61.045L184.114,61.256L183.535,61.469L182.956,61.684L182.379,61.901L181.802,62.119L181.227,62.339L180.652,62.561L180.078,62.785L179.505,63.01L178.932,63.237L178.361,63.465L177.79,63.696L177.22,63.928L176.651,64.161L176.083,64.397L175.516,64.634L174.95,64.872L174.384,65.113L173.82,65.355L173.256,65.598L172.693,65.844L172.131,66.091L171.57,66.339L171.01,66.59L170.451,66.842L169.893,67.095L169.335,67.351L168.779,67.607L168.223,67.866L167.668,68.126L167.115,68.388L166.562,68.652L166.01,68.917L165.459,69.183L164.909,69.452L164.359,69.722L163.811,69.993L163.264,70.266L162.717,70.541L162.172,70.818L161.628,71.096L161.084,71.375L160.541,71.656L160,71.939L159.459,72.224L158.919,72.51L158.381,72.797L157.843,73.086L157.306,73.377L156.77,73.669L156.235,73.963L155.701,74.259L155.168,74.556L154.637,74.854L154.106,75.154L153.576,75.456L153.047,75.759L152.519,76.064L151.992,76.37L151.466,76.678L150.941,76.988L150.417,77.299L149.894,77.611L149.372,77.925L148.851,78.241L148.331,78.558L147.813,78.876L147.295,79.197L146.778,79.518L146.262,79.841L145.748,80.166L145.234,80.492L144.721,80.82L144.21,81.149L143.699,81.48L143.19,81.812L142.682,82.146L142.174,82.481L141.668,82.817L141.163,83.156L140.659,83.495L140.155,83.836L139.654,84.179L139.153,84.523L138.653,84.868L138.154,85.215L137.656,85.564L137.16,85.914L136.664,86.265L136.17,86.618L135.677,86.972L135.185,87.328L134.694,87.685L134.204,88.043L133.715,88.403L133.227,88.765L132.741,89.128L132.255,89.492L131.771,89.858L131.288,90.225L130.805,90.593L130.325,90.963L129.845,91.335L129.366,91.707L128.889,92.081L128.412,92.457L127.937,92.834L127.463,93.212L126.99,93.592L126.518,93.973L126.048,94.356L125.578,94.74L125.11,95.125L124.643,95.512L124.177,95.9L123.713,96.289L123.249,96.68L122.787,97.072L122.326,97.466L121.866,97.861L121.407,98.257L120.949,98.654L120.493,99.053L120.038,99.454L119.584,99.855L119.131,100.258L118.68,100.663L118.23,101.068L117.781,101.475L117.333,101.883L116.886,102.293L116.441,102.704L115.997,103.116L115.554,103.53L115.112,103.945L114.672,104.361L114.233,104.778L113.795,105.197L113.358,105.617L112.923,106.038L112.488,106.461L112.056,106.885L111.624,107.31L111.194,107.737L110.765,108.165L110.337,108.594L109.91,109.024L109.485,109.456L109.061,109.888L108.638,110.323L108.217,110.758L107.797,111.195L107.378,111.633L106.961,112.072L106.545,112.512L106.13,112.954L105.716,113.397L105.304,113.841L104.893,114.286L104.483,114.733L104.075,115.181L103.668,115.63L103.263,116.08L102.858,116.531L102.455,116.984L102.054,117.438L101.653,117.893L101.254,118.349L100.857,118.807L100.461,119.266L100.066,119.726L99.672,120.187L99.28,120.649L98.889,121.113L98.5,121.577L98.112,122.043L97.725,122.51L97.34,122.978L96.956,123.448L96.573,123.918L96.192,124.39L95.812,124.863L95.434,125.337L95.057,125.812L94.681,126.289L94.307,126.766L93.935,127.245L93.563,127.725L93.193,128.205L92.825,128.688L92.457,129.171L92.092,129.655L91.728,130.141L91.365,130.627L91.003,131.115L90.643,131.604L90.285,132.094L89.928,132.585L89.572,133.077L89.218,133.57L88.865,134.064L88.514,134.56L88.164,135.056L87.815,135.554L87.468,136.053L87.123,136.553L86.779,137.054L86.436,137.556L86.095,138.059L85.756,138.563L85.417,139.068L85.081,139.574L84.746,140.082L84.412,140.59L84.08,141.099L83.749,141.61L83.42,142.121L83.092,142.634L82.766,143.148L82.441,143.662L82.118,144.178L81.797,144.695L81.476,145.213L81.158,145.732L80.841,146.251L80.525,146.772L80.211,147.294L79.899,147.817L79.588,148.341L79.278,148.866L78.97,149.392L78.664,149.919L78.359,150.447L78.056,150.976L77.754,151.506L77.454,152.037L77.156,152.569L76.859,153.101L76.563,153.635L76.269,154.17L75.977,154.706L75.686,155.243L75.397,155.781L75.11,156.319L74.824,156.859L74.539,157.4L74.256,157.941L73.975,158.484L73.696,159.028L73.418,159.572L73.141,160.118L72.866,160.664L72.593,161.211L72.322,161.759L72.052,162.309L71.783,162.859L71.517,163.41L71.252,163.962L70.988,164.515L70.726,165.068L70.466,165.623L70.208,166.179L69.951,166.735L69.695,167.293L69.442,167.851L69.19,168.41L68.939,168.97L68.691,169.532L68.444,170.093L68.198,170.656L67.955,171.22L67.713,171.784L67.472,172.35L67.234,172.916L66.997,173.483L66.761,174.051L66.528,174.62L66.296,175.19L66.065,175.761L65.837,176.332L65.61,176.905L65.385,177.478L65.161,178.052L64.939,178.627L64.719,179.203L64.501,179.779L64.284,180.356L64.069,180.935L63.856,181.514L63.645,182.094L63.435,182.674L63.227,183.256L63.021,183.838L62.816,184.421L62.613,185.005L62.412,185.59L62.213,186.176L62.015,186.762L61.819,187.349L61.625,187.937L61.433,188.526L61.242,189.116L61.054,189.706L60.867,190.297L60.681,190.889L60.498,191.482L60.316,192.075L60.136,192.669L59.958,193.264L59.782,193.86L59.607,194.457L59.434,195.054L59.263,195.652L59.094,196.251L58.927,196.85L58.761,197.451L58.597,198.052L58.435,198.653L58.275,199.256L58.117,199.859L57.96,200.463L57.805,201.068L57.652,201.673L57.501,202.279L57.352,202.886L57.205,203.494L57.059,204.102L56.915,204.711L56.773,205.321L56.633,205.931L56.495,206.543L56.359,207.154L56.224,207.767L56.092,208.38L55.961,208.994L55.832,209.609L55.705,210.224L55.58,210.84L55.456,211.457L55.335,212.074L55.215,212.692L55.098,213.311L54.982,213.93L54.868,214.55L54.756,215.171L54.646,215.792L54.538,216.414L54.431,217.037L54.327,217.66L54.224,218.284L54.124,218.909L54.025,219.534L53.928,220.16L53.834,220.787L53.741,221.414L53.65,222.041L53.561,222.67L53.474,223.299L53.388,223.929L53.305,224.559L53.224,225.19L53.144,225.821L53.067,226.454L52.992,227.086L52.918,227.72L52.846,228.354L52.777,228.988L52.709,229.623L52.644,230.259L52.58,230.895L52.518,231.532L52.458,232.17L52.401,232.808L52.345,233.447L52.291,234.086L52.239,234.726L52.189,235.366L52.142,236.007L52.096,236.649L52.052,237.291L52.01,237.933L51.97,238.577L51.933,239.22L51.897,239.865L51.863,240.509L51.831,241.155L51.802,241.801L51.774,242.447L51.748,243.094L51.725,243.742L51.703,244.39L51.684,245.039L51.666,245.688L51.651,246.338L51.637,246.988L51.626,247.639L51.617,248.29L51.609,248.942L51.604,249.594L51.601,250.247L51.6,250.9L51.601,251.553L51.604,252.206L51.609,252.858L51.617,253.51L51.626,254.161L51.637,254.812L51.651,255.462L51.666,256.112L51.684,256.761L51.703,257.41L51.725,258.058L51.748,258.706L51.774,259.353L51.802,259.999L51.831,260.645L51.863,261.291L51.897,261.935L51.933,262.58L51.97,263.223L52.01,263.867L52.052,264.509L52.096,265.151L52.142,265.793L52.189,266.434L52.239,267.074L52.291,267.714L52.345,268.353L52.401,268.992L52.458,269.63L52.518,270.268L52.58,270.905L52.644,271.541L52.709,272.177L52.777,272.812L52.846,273.446L52.918,274.08L52.992,274.714L53.067,275.346L53.144,275.979L53.224,276.61L53.305,277.241L53.388,277.871L53.474,278.501L53.561,279.13L53.65,279.759L53.741,280.386L53.834,281.013L53.928,281.64L54.025,282.266L54.124,282.891L54.224,283.516L54.327,284.14L54.431,284.763L54.538,285.386L54.646,286.008L54.756,286.629L54.868,287.25L54.982,287.87L55.098,288.489L55.215,289.108L55.335,289.726L55.456,290.343L55.58,290.96L55.705,291.576L55.832,292.191L55.961,292.806L56.092,293.42L56.224,294.033L56.359,294.646L56.495,295.257L56.633,295.869L56.773,296.479L56.915,297.089L57.059,297.698L57.205,298.306L57.352,298.914L57.501,299.521L57.652,300.127L57.805,300.732L57.96,301.337L58.117,301.941L58.275,302.544L58.435,303.147L58.597,303.748L58.761,304.349L58.927,304.95L59.094,305.549L59.263,306.148L59.434,306.746L59.607,307.343L59.782,307.94L59.958,308.536L60.136,309.131L60.316,309.725L60.498,310.318L60.681,310.911L60.867,311.503L61.054,312.094L61.242,312.684L61.433,313.274L61.625,313.863L61.819,314.451L62.015,315.038L62.213,315.624L62.412,316.21L62.613,316.795L62.816,317.379L63.021,317.962L63.227,318.544L63.435,319.126L63.645,319.706L63.856,320.286L64.069,320.865L64.284,321.444L64.501,322.021L64.719,322.598L64.939,323.173L65.161,323.748L65.385,324.322L65.61,324.895L65.837,325.468L66.065,326.039L66.296,326.61L66.528,327.18L66.761,327.749L66.997,328.317L67.234,328.884L67.472,329.45L67.713,330.016L67.955,330.58L68.198,331.144L68.444,331.707L68.691,332.268L68.939,332.83L69.19,333.39L69.442,333.949L69.695,334.507L69.951,335.065L70.208,335.621L70.466,336.177L70.726,336.732L70.988,337.285L71.252,337.838L71.517,338.39L71.783,338.941L72.052,339.491L72.322,340.04L72.593,340.589L72.866,341.136L73.141,341.683L73.418,342.228L73.696,342.772L73.975,343.316L74.256,343.859L74.539,344.4L74.824,344.941L75.11,345.48L75.397,346.019L75.686,346.557L75.977,347.094L76.269,347.63L76.563,348.165L76.859,348.699L77.156,349.231L77.454,349.763L77.754,350.294L78.056,350.824L78.359,351.353L78.664,351.881L78.97,352.408L79.278,352.934L79.588,353.459L79.899,353.983L80.211,354.506L80.525,355.028L80.841,355.549L81.158,356.069L81.476,356.587L81.797,357.105L82.118,357.622L82.441,358.138L82.766,358.652L83.092,359.166L83.42,359.679L83.749,360.19L84.08,360.701L84.412,361.21L84.746,361.718L85.081,362.226L85.417,362.732L85.756,363.237L86.095,363.741L86.436,364.245L86.779,364.746L87.123,365.247L87.468,365.747L87.815,366.246L88.164,366.744L88.514,367.24L88.865,367.736L89.218,368.23L89.572,368.723L89.928,369.215L90.285,369.706L90.643,370.196L91.003,370.685L91.365,371.173L91.728,371.66L92.092,372.145L92.457,372.629L92.825,373.113L93.193,373.595L93.563,374.075L93.935,374.555L94.307,375.034L94.681,375.511L95.057,375.988L95.434,376.463L95.812,376.937L96.192,377.41L96.573,377.882L96.956,378.352L97.34,378.822L97.725,379.29L98.112,379.757L98.5,380.223L98.889,380.687L99.28,381.151L99.672,381.613L100.066,382.074L100.461,382.534L100.857,382.993L101.255,383.451L101.653,383.907L102.054,384.362L102.455,384.816L102.858,385.269L103.262,385.72L103.668,386.17L104.075,386.619L104.483,387.067L104.893,387.514L105.304,387.959L105.716,388.403L106.13,388.846L106.545,389.288L106.961,389.728L107.378,390.167L107.797,390.605L108.217,391.042L108.638,391.477L109.061,391.912L109.485,392.344L109.91,392.776L110.337,393.206L110.765,393.636L111.194,394.063L111.624,394.49L112.056,394.915L112.488,395.339L112.923,395.762L113.358,396.183L113.795,396.603L114.233,397.022L114.672,397.439L115.112,397.856L115.554,398.27L115.997,398.684L116.441,399.096L116.886,399.507L117.333,399.917L117.78,400.325L118.23,400.732L118.68,401.137L119.131,401.542L119.584,401.945L120.038,402.346L120.493,402.747L120.95,403.146L121.407,403.543L121.866,403.939L122.326,404.334L122.787,404.728L123.249,405.12L123.713,405.511L124.177,405.9L124.643,406.288L125.11,406.675L125.579,407.06L126.048,407.444L126.518,407.827L126.99,408.208L127.463,408.587L127.937,408.966L128.412,409.343L128.889,409.719L129.366,410.093L129.845,410.465L130.324,410.837L130.805,411.207L131.288,411.575L131.771,411.942L132.255,412.308L132.741,412.672L133.227,413.035L133.715,413.397L134.204,413.757L134.694,414.115L135.185,414.472L135.677,414.828L136.17,415.182L136.664,415.535L137.16,415.886L137.656,416.236L138.154,416.585L138.653,416.932L139.153,417.277L139.654,417.621L140.155,417.964L140.659,418.305L141.163,418.645L141.668,418.983L142.174,419.319L142.682,419.654L143.19,419.988L143.699,420.32L144.21,420.651L144.721,420.98L145.234,421.308L145.748,421.634L146.262,421.959L146.778,422.282L147.295,422.603L147.813,422.924L148.332,423.242L148.851,423.559L149.372,423.875L149.894,424.189L150.417,424.501L150.941,424.812L151.466,425.122L151.992,425.43L152.519,425.736L153.047,426.041L153.576,426.344L154.106,426.646L154.636,426.946L155.168,427.244L155.701,427.541L156.235,427.837L156.77,428.131L157.306,428.423L157.843,428.714L158.381,429.003L158.919,429.29L159.459,429.576L160,429.861L160.541,430.144L161.084,430.425L161.627,430.704L162.172,430.982L162.717,431.259L163.264,431.534L163.811,431.807L164.359,432.078L164.909,432.348L165.459,432.617L166.01,432.883L166.562,433.148L167.115,433.412L167.668,433.674L168.223,433.934L168.779,434.192L169.335,434.449L169.893,434.705L170.451,434.958L171.01,435.21L171.57,435.461L172.132,435.709L172.693,435.956L173.256,436.202L173.82,436.445L174.385,436.687L174.95,436.928L175.516,437.166L176.083,437.403L176.651,437.639L177.22,437.872L177.79,438.104L178.361,438.335L178.932,438.563L179.505,438.79L180.078,439.015L180.652,439.239L181.227,439.46L181.803,439.681L182.379,439.899L182.956,440.116L183.535,440.33L184.114,440.544L184.694,440.755L185.274,440.965L185.856,441.173L186.438,441.379L187.021,441.584L187.605,441.787L188.19,441.988L188.776,442.187L189.362,442.385L189.949,442.581L190.537,442.775L191.126,442.967L191.716,443.158L192.306,443.346L192.897,443.533L193.489,443.719L194.081,443.902L194.675,444.084L195.269,444.264L195.864,444.442L196.46,444.618L197.057,444.793L197.654,444.966L198.252,445.137L198.851,445.306L199.45,445.473L200.051,445.639L200.651,445.803L201.253,445.965L201.856,446.125L202.459,446.283L203.063,446.44L203.668,446.595L204.273,446.748L204.879,446.899L205.486,447.048L206.094,447.195L206.702,447.341L207.311,447.485L207.921,447.627L208.532,447.767L209.143,447.905L209.754,448.041L210.367,448.176L210.98,448.308L211.594,448.439L212.209,448.568L212.824,448.695L213.44,448.82L214.057,448.944L214.674,449.065L215.292,449.185L215.911,449.302L216.53,449.418L217.15,449.532L217.771,449.644L218.392,449.754L219.014,449.862L219.637,449.969L220.26,450.073L220.884,450.176L221.509,450.276L222.134,450.375L222.76,450.472L223.387,450.566L224.014,450.659L224.641,450.75L225.27,450.839L225.899,450.926L226.529,451.012L227.159,451.095L227.79,451.176L228.421,451.256L229.054,451.333L229.686,451.408L230.32,451.482L230.954,451.554L231.588,451.623L232.223,451.691L232.859,451.756L233.495,451.82L234.132,451.882L234.77,451.942L235.408,451.999L236.047,452.055L236.686,452.109L237.326,452.161L237.966,452.211L238.607,452.258L239.248,452.304L239.89,452.348L240.533,452.39L241.177,452.43L241.82,452.467L242.465,452.503L243.109,452.537L243.755,452.569L244.401,452.598L245.047,452.626L245.695,452.652L246.342,452.675L246.99,452.697L247.639,452.716L248.288,452.734L248.937,452.749L249.588,452.763L250.239,452.774L250.89,452.783L251.542,452.791L252.194,452.796L252.847,452.799L253.5,452.8L254.153,452.799L254.806,452.796L255.458,452.791L256.11,452.783L256.761,452.774L257.412,452.763L258.062,452.749L258.712,452.734L259.361,452.716L260.01,452.697L260.658,452.675L261.305,452.652L261.953,452.626L262.599,452.598L263.245,452.569L263.891,452.537L264.535,452.503L265.18,452.467L265.823,452.43L266.467,452.39L267.11,452.348L267.752,452.304L268.393,452.258L269.034,452.211L269.674,452.161L270.314,452.109L270.953,452.055L271.592,451.999L272.23,451.942L272.868,451.882L273.505,451.82L274.141,451.756L274.777,451.691L275.412,451.623L276.046,451.554L276.68,451.482L277.314,451.408L277.946,451.333L278.579,451.256L279.21,451.176L279.841,451.095L280.471,451.012L281.101,450.926L281.73,450.839L282.359,450.75L282.986,450.659L283.613,450.566L284.24,450.472L284.866,450.375L285.491,450.276L286.116,450.176L286.74,450.073L287.363,449.969L287.986,449.862L288.608,449.754L289.229,449.644L289.85,449.532L290.47,449.418L291.089,449.302L291.708,449.185L292.326,449.065L292.943,448.944L293.56,448.82L294.176,448.695L294.791,448.568L295.406,448.439L296.02,448.308L296.633,448.176L297.246,448.041L297.857,447.905L298.468,447.767L299.079,447.627L299.689,447.485L300.298,447.341L300.906,447.195L301.514,447.048L302.121,446.899L302.727,446.748L303.332,446.595L303.937,446.44L304.541,446.283L305.144,446.125L305.747,445.965L306.349,445.803L306.949,445.639L307.55,445.473L308.149,445.306L308.748,445.137L309.346,444.966L309.943,444.793L310.54,444.618L311.136,444.442L311.73,444.264L312.325,444.084L312.919,443.902L313.511,443.719L314.103,443.533L314.694,443.346L315.284,443.158L315.874,442.967L316.463,442.775L317.051,442.581L317.638,442.385L318.224,442.187L318.81,441.988L319.395,441.787L319.979,441.584L320.562,441.379L321.144,441.173L321.726,440.965L322.306,440.755L322.886,440.544L323.465,440.33L324.044,440.116L324.621,439.899L325.197,439.681L325.773,439.46L326.348,439.239L326.922,439.015L327.495,438.79L328.068,438.563L328.639,438.335L329.21,438.104L329.78,437.872L330.349,437.639L330.917,437.403L331.484,437.166L332.05,436.928L332.615,436.687L333.18,436.445L333.744,436.202L334.307,435.956L334.868,435.709L335.43,435.461L335.99,435.21L336.549,434.958L337.107,434.705L337.665,434.449L338.221,434.192L338.777,433.934L339.332,433.674L339.885,433.412L340.438,433.148L340.99,432.883L341.541,432.617L342.091,432.348L342.641,432.078L343.189,431.807L343.736,431.534L344.282,431.259L344.828,430.982L345.373,430.704L345.916,430.425L346.459,430.144L347,429.861L347.541,429.576L348.081,429.29L348.619,429.003L349.157,428.714L349.694,428.423L350.23,428.131L350.765,427.837L351.299,427.541L351.832,427.244L352.363,426.946L352.894,426.646L353.424,426.344L353.953,426.041L354.481,425.736L355.008,425.43L355.534,425.122L356.059,424.812L356.583,424.501L357.106,424.189L357.628,423.875L358.149,423.559L358.668,423.242L359.187,422.924L359.705,422.603L360.222,422.282L360.738,421.959L361.252,421.634L361.766,421.308L362.279,420.98L362.79,420.651L363.301,420.32L363.81,419.988L364.319,419.654L364.826,419.319L365.332,418.983L365.837,418.644L366.342,418.305L366.845,417.964L367.346,417.621L367.847,417.277L368.347,416.932L368.846,416.585L369.344,416.236L369.84,415.886L370.336,415.535L370.83,415.182L371.323,414.828L371.815,414.472L372.306,414.115L372.796,413.757L373.285,413.397L373.773,413.035L374.26,412.672L374.745,412.308L375.229,411.942L375.712,411.575L376.195,411.207L376.676,410.837L377.155,410.465L377.634,410.093L378.111,409.719L378.588,409.343L379.063,408.966L379.537,408.588L380.01,408.208L380.482,407.827L380.952,407.444L381.422,407.06L381.89,406.675L382.357,406.288L382.823,405.9L383.287,405.511L383.751,405.12L384.213,404.728L384.674,404.334L385.134,403.939L385.593,403.543L386.051,403.146L386.507,402.747L386.962,402.346L387.416,401.945L387.869,401.542L388.32,401.138L388.77,400.732L389.22,400.325L389.667,399.917L390.114,399.507L390.559,399.096L391.003,398.684L391.446,398.27L391.888,397.856L392.328,397.439L392.767,397.022L393.205,396.603L393.642,396.183L394.077,395.762L394.512,395.339L394.945,394.915L395.376,394.49L395.806,394.063L396.235,393.635L396.663,393.206L397.09,392.776L397.515,392.345L397.939,391.912L398.362,391.477L398.783,391.042L399.203,390.605L399.622,390.167L400.039,389.728L400.455,389.288L400.87,388.846L401.284,388.403L401.696,387.959L402.107,387.514L402.517,387.067L402.925,386.619L403.332,386.17L403.738,385.72L404.142,385.269L404.545,384.816L404.946,384.362L405.347,383.907L405.745,383.451L406.143,382.993L406.539,382.534L406.934,382.074L407.328,381.613L407.72,381.151L408.111,380.687L408.5,380.223L408.888,379.757L409.275,379.29L409.66,378.822L410.044,378.352L410.427,377.882L410.808,377.41L411.188,376.937L411.566,376.463L411.943,375.988L412.319,375.511L412.693,375.034L413.065,374.555L413.437,374.075L413.807,373.594L414.175,373.113L414.542,372.629L414.908,372.145L415.272,371.66L415.635,371.173L415.997,370.685L416.357,370.196L416.715,369.706L417.072,369.215L417.428,368.723L417.782,368.23L418.135,367.736L418.486,367.24L418.836,366.743L419.185,366.246L419.532,365.747L419.877,365.248L420.221,364.747L420.564,364.244L420.905,363.741L421.244,363.237L421.583,362.732L421.919,362.226L422.254,361.719L422.588,361.21L422.92,360.701L423.251,360.19L423.58,359.678L423.908,359.166L424.234,358.652L424.559,358.138L424.882,357.622L425.203,357.105L425.524,356.587L425.842,356.068L426.159,355.549L426.475,355.028L426.789,354.506L427.101,353.983L427.412,353.459L427.722,352.934L428.03,352.408L428.336,351.881L428.641,351.353L428.944,350.824L429.246,350.294L429.546,349.763L429.844,349.231L430.141,348.699L430.437,348.165L430.731,347.63L431.023,347.094L431.314,346.557L431.603,346.019L431.89,345.48L432.176,344.941L432.461,344.4L432.744,343.859L433.025,343.316L433.304,342.772L433.582,342.228L433.859,341.683L434.134,341.136L434.407,340.589L434.678,340.041L434.948,339.491L435.217,338.941L435.483,338.39L435.748,337.838L436.012,337.285L436.274,336.731L436.534,336.177L436.792,335.621L437.049,335.065L437.305,334.507L437.558,333.949L437.81,333.39L438.061,332.83L438.309,332.269L438.556,331.707L438.802,331.144L439.045,330.58L439.287,330.016L439.528,329.45L439.767,328.884L440.003,328.317L440.239,327.749L440.472,327.18L440.704,326.61L440.935,326.039L441.163,325.468L441.39,324.895L441.615,324.322L441.839,323.748L442.061,323.173L442.281,322.598L442.499,322.021L442.716,321.443L442.931,320.865L443.144,320.286L443.355,319.706L443.565,319.126L443.773,318.544L443.979,317.962L444.184,317.379L444.387,316.795L444.588,316.21L444.787,315.624L444.985,315.038L445.18,314.451L445.375,313.863L445.567,313.274L445.758,312.684L445.946,312.094L446.133,311.503L446.319,310.911L446.502,310.318L446.684,309.725L446.864,309.131L447.042,308.536L447.218,307.94L447.393,307.343L447.566,306.746L447.737,306.148L447.906,305.549L448.073,304.95L448.239,304.349L448.403,303.748L448.565,303.147L448.725,302.544L448.883,301.941L449.04,301.337L449.195,300.732L449.348,300.127L449.499,299.521L449.648,298.914L449.795,298.306L449.941,297.698L450.085,297.089L450.227,296.479L450.367,295.868L450.505,295.257L450.641,294.646L450.776,294.033L450.908,293.42L451.039,292.806L451.168,292.191L451.295,291.576L451.42,290.96L451.544,290.343L451.665,289.726L451.785,289.108L451.902,288.489L452.018,287.87L452.132,287.25L452.244,286.629L452.354,286.008L452.462,285.386L452.569,284.763L452.673,284.14L452.776,283.516L452.876,282.891L452.975,282.266L453.072,281.64L453.166,281.013L453.259,280.386L453.35,279.759L453.439,279.13L453.526,278.501L453.612,277.871L453.695,277.241L453.776,276.61L453.856,275.979L453.933,275.346L454.008,274.714L454.082,274.081L454.154,273.446L454.223,272.812L454.291,272.177L454.356,271.541L454.42,270.905L454.482,270.268L454.542,269.63L454.599,268.992L454.655,268.353L454.709,267.714L454.761,267.075L454.81,266.434L454.858,265.793L454.904,265.151L454.948,264.509L454.99,263.867L455.03,263.223L455.067,262.58L455.103,261.935L455.137,261.291L455.169,260.645L455.198,259.999L455.226,259.352L455.252,258.705L455.275,258.058L455.297,257.41L455.316,256.761L455.334,256.112L455.349,255.462L455.363,254.812L455.374,254.161L455.383,253.51L455.391,252.858L455.396,252.206L455.399,251.553L455.4,250.9L455.399,250.247L455.396,249.594L455.391,248.942L455.383,248.29L455.374,247.639L455.363,246.988L455.349,246.337L455.334,245.688L455.316,245.039L455.297,244.39L455.275,243.742L455.252,243.095L455.226,242.448L455.198,241.801L455.169,241.155L455.137,240.509L455.103,239.865L455.067,239.22L455.03,238.577L454.99,237.933L454.948,237.29L454.904,236.649L454.858,236.007L454.81,235.366L454.761,234.725L454.709,234.086L454.655,233.447L454.599,232.808L454.542,232.17L454.482,231.532L454.42,230.895L454.356,230.259L454.291,229.623L454.223,228.988L454.154,228.354L454.082,227.719L454.008,227.086L453.933,226.454L453.856,225.821L453.776,225.19L453.695,224.559L453.612,223.929L453.526,223.299L453.439,222.67L453.35,222.041L453.259,221.414L453.166,220.787L453.072,220.16L452.975,219.534L452.876,218.909L452.776,218.284L452.673,217.66L452.569,217.037L452.462,216.414L452.354,215.792L452.244,215.171L452.132,214.55L452.018,213.93L451.902,213.311L451.785,212.692L451.665,212.074L451.544,211.457L451.42,210.84L451.295,210.224L451.168,209.609L451.039,208.994L450.908,208.38L450.776,207.767L450.641,207.154L450.505,206.543L450.367,205.932L450.227,205.321L450.085,204.711L449.941,204.102L449.795,203.494L449.648,202.886L449.499,202.279L449.348,201.673L449.195,201.068L449.04,200.463L448.883,199.859L448.725,199.256L448.565,198.653L448.403,198.052L448.239,197.451L448.073,196.85L447.906,196.251L447.737,195.652L447.566,195.054L447.393,194.457L447.218,193.86L447.042,193.264L446.864,192.669L446.684,192.075L446.502,191.482L446.319,190.889L446.133,190.297L445.946,189.706L445.758,189.116L445.567,188.526L445.375,187.937L445.18,187.349L444.985,186.762L444.787,186.176L444.588,185.59L444.387,185.005L444.184,184.421L443.979,183.838L443.773,183.256L443.565,182.674L443.355,182.094L443.144,181.514L442.93,180.935L442.716,180.357L442.499,179.779L442.281,179.202L442.061,178.627L441.839,178.052L441.615,177.478L441.39,176.905L441.163,176.332L440.935,175.761L440.704,175.19L440.472,174.621L440.239,174.051L440.003,173.483L439.767,172.916L439.528,172.35L439.287,171.784L439.045,171.22L438.802,170.656L438.556,170.093L438.309,169.531L438.061,168.97L437.81,168.41L437.558,167.851L437.305,167.293L437.049,166.735L436.792,166.179L436.534,165.623L436.274,165.069L436.012,164.515L435.748,163.962L435.483,163.41L435.217,162.859L434.948,162.309L434.678,161.759L434.407,161.211L434.134,160.664L433.859,160.117L433.582,159.572L433.304,159.028L433.025,158.484L432.744,157.941L432.461,157.4L432.176,156.859L431.89,156.319L431.603,155.781L431.314,155.243L431.023,154.706L430.731,154.17L430.437,153.635L430.141,153.101L429.844,152.568L429.546,152.037L429.246,151.506L428.944,150.976L428.641,150.447L428.336,149.919L428.03,149.392L427.722,148.866L427.412,148.341L427.101,147.817L426.789,147.294L426.475,146.772L426.159,146.251L425.842,145.732L425.524,145.213L425.203,144.695L424.882,144.178L424.559,143.662L424.234,143.148L423.908,142.634L423.58,142.122L423.251,141.61L422.92,141.099L422.588,140.59L422.254,140.081L421.919,139.574L421.583,139.068L421.244,138.563L420.905,138.059L420.564,137.556L420.221,137.053L419.877,136.553L419.532,136.053L419.185,135.554L418.836,135.056L418.486,134.56L418.135,134.064L417.782,133.57L417.428,133.077L417.072,132.585L416.715,132.093L416.357,131.604L415.997,131.115L415.635,130.627L415.272,130.141L414.908,129.655L414.542,129.171L414.175,128.688L413.807,128.206L413.437,127.725L413.065,127.245L412.693,126.766L412.319,126.289L411.943,125.812L411.566,125.337L411.188,124.863L410.808,124.39L410.427,123.918L410.044,123.448L409.66,122.978L409.275,122.51L408.888,122.043L408.5,121.577L408.111,121.113L407.72,120.649L407.328,120.187L406.934,119.726L406.539,119.266L406.143,118.807L405.746,118.349L405.347,117.893L404.946,117.438L404.545,116.984L404.142,116.531L403.737,116.08L403.332,115.63L402.925,115.181L402.517,114.733L402.107,114.286L401.696,113.841L401.284,113.397L400.87,112.954L400.455,112.512L400.039,112.072L399.622,111.633L399.203,111.195L398.783,110.758L398.362,110.323L397.939,109.888L397.515,109.455L397.09,109.024L396.663,108.594L396.236,108.165L395.806,107.737L395.376,107.31L394.945,106.885L394.512,106.461L394.077,106.038L393.642,105.617L393.205,105.197L392.767,104.778L392.328,104.361L391.888,103.945L391.446,103.53L391.003,103.116L390.559,102.704L390.114,102.293L389.667,101.883L389.219,101.475L388.77,101.068L388.32,100.662L387.869,100.258L387.416,99.855L386.962,99.454L386.507,99.053L386.051,98.654L385.593,98.257L385.134,97.861L384.674,97.466L384.213,97.072L383.751,96.68L383.287,96.289L382.823,95.9L382.357,95.512L381.89,95.125L381.422,94.74L380.952,94.356L380.482,93.973L380.01,93.592L379.537,93.212L379.063,92.834L378.588,92.457L378.111,92.081L377.634,91.707L377.155,91.335L376.676,90.963L376.195,90.593L375.712,90.225L375.229,89.858L374.745,89.492L374.26,89.128L373.773,88.765L373.285,88.403L372.796,88.043L372.306,87.685L371.815,87.328L371.323,86.972L370.83,86.618L370.336,86.265L369.84,85.914L369.344,85.564L368.846,85.215L368.347,84.868L367.847,84.523L367.346,84.179L366.844,83.836L366.342,83.495L365.837,83.156L365.332,82.817L364.826,82.481L364.319,82.146L363.81,81.812L363.301,81.48L362.79,81.149L362.279,80.82L361.766,80.492L361.252,80.166L360.738,79.841L360.222,79.518L359.705,79.197L359.187,78.876L358.668,78.558L358.149,78.241L357.628,77.925L357.106,77.611L356.583,77.299L356.059,76.988L355.534,76.678L355.008,76.37L354.481,76.064L353.953,75.759L353.424,75.456L352.894,75.154L352.363,74.854L351.831,74.556L351.299,74.259L350.765,73.963L350.23,73.669L349.694,73.377L349.157,73.086L348.619,72.797L348.081,72.51L347.541,72.224L347,71.939L346.459,71.657L345.916,71.375L345.372,71.096L344.828,70.818L344.282,70.541L343.736,70.266L343.189,69.993L342.641,69.722L342.091,69.452L341.541,69.183L340.99,68.917L340.438,68.652L339.885,68.388L339.332,68.126L338.777,67.866L338.221,67.607L337.665,67.351L337.107,67.095L336.549,66.842L335.99,66.59L335.43,66.339L334.869,66.091L334.306,65.844L333.744,65.598L333.18,65.355L332.616,65.113L332.05,64.872L331.484,64.634L330.917,64.397L330.349,64.161L329.78,63.928L329.21,63.696L328.639,63.465L328.068,63.237L327.495,63.01L326.922,62.785L326.348,62.561L325.773,62.339L325.197,62.119L324.621,61.901L324.044,61.684L323.465,61.469L322.886,61.256L322.306,61.045L321.726,60.835L321.144,60.627L320.562,60.421L319.979,60.216L319.395,60.013L318.81,59.812L318.224,59.613L317.638,59.415L317.051,59.219L316.463,59.025L315.874,58.833L315.284,58.642L314.694,58.454L314.103,58.267L313.511,58.081L312.918,57.898L312.325,57.716L311.731,57.536L311.136,57.358L310.54,57.182L309.943,57.007L309.346,56.834L308.748,56.663L308.149,56.494L307.55,56.327L306.949,56.161L306.348,55.997L305.747,55.835L305.144,55.675L304.541,55.517L303.937,55.36L303.332,55.205L302.727,55.052L302.121,54.901L301.514,54.752L300.906,54.605L300.298,54.459L299.689,54.315L299.079,54.173L298.469,54.033L297.857,53.895L297.246,53.759L296.633,53.624L296.02,53.492L295.406,53.361L294.791,53.232L294.176,53.105L293.56,52.98L292.943,52.856L292.326,52.735L291.708,52.615L291.089,52.498L290.47,52.382L289.85,52.268L289.229,52.156L288.608,52.046L287.986,51.938L287.363,51.831L286.74,51.727L286.116,51.624L285.491,51.524L284.866,51.425L284.24,51.328L283.613,51.234L282.986,51.141L282.359,51.05L281.73,50.961L281.101,50.874L280.471,50.788L279.841,50.705L279.21,50.624L278.579,50.544L277.946,50.467L277.314,50.392L276.68,50.318L276.046,50.246L275.412,50.177L274.777,50.109L274.141,50.044L273.505,49.98L272.868,49.918L272.23,49.858L271.592,49.801L270.953,49.745L270.314,49.691L269.674,49.639L269.034,49.589L268.393,49.542L267.751,49.496L267.109,49.452L266.467,49.41L265.823,49.37L265.18,49.333L264.535,49.297L263.891,49.263L263.245,49.231L262.599,49.202L261.953,49.174L261.306,49.148L260.658,49.125L260.01,49.103L259.361,49.084L258.712,49.066L258.062,49.051L257.412,49.037L256.761,49.026L256.11,49.017L255.458,49.009L254.806,49.004L254.153,49.001L253.5,49L252.847,49.001Z" style="fill:rgb(255,250,250);"/>
    </g>
</svg>
