<?xml version="1.0" encoding="UTF-8" standalone="no"?>
<!DOCTYPE svg PUBLIC "-//W3C//DTD SVG 1.1//EN" "http://www.w3.org/Graphics/SVG/1.1/DTD/svg11.dtd">
<svg width="100%" height="100%" viewBox="0 0 713 142" version="1.1" xmlns="http://www.w3.org/2000/svg" xmlns:xlink="http://www.w3.org/1999/xlink" xml:space="preserve" style="fill-rule:evenodd;clip-rule:evenodd;stroke-linejoin:round;stroke-miterlimit:1.41421;">
    <g transform="matrix(1,0,0,1,-64.4521,-56.5887)">
        <g transform="matrix(4.16667,0,0,4.16667,0,0)">
            <path d="M142.777,46.41L150.969,46.41C149.54,45.276 149.016,44.331 149.016,42.773C149.016,42.348 149.112,41.639 149.255,40.647L152.446,19.533L161.448,41.119C162.543,43.718 163.686,45.606 165.591,46.794L176.783,19.438L179.403,41.97C179.451,42.253 179.451,42.536 179.451,42.773C179.451,44.331 178.879,45.512 177.688,46.41L186.452,46.41C185.023,44.898 184.404,43.292 184.166,41.308L181.356,19.344C181.26,18.588 181.26,18.069 181.26,17.691C181.26,16.274 181.641,15.282 182.642,14.384L174.783,14.384L165.305,38.144L155.637,14.384L147.397,14.384C148.492,15.423 149.016,15.99 149.016,17.171C149.016,17.785 148.921,18.541 148.778,19.438L145.54,40.978C145.206,43.104 144.444,44.71 142.777,46.41" style="fill:rgb(11,46,130);"/>
        </g>
        <g transform="matrix(4.16667,0,0,4.16667,0,0)">
            <path d="M120.154,42.064L123.25,34.412L135.299,34.412L138.062,41.829C138.395,42.726 138.729,43.482 138.729,44.332C138.729,44.994 138.205,45.512 137.348,46.411L146.588,46.411C144.349,44.521 143.587,42.915 142.92,41.214L132.633,14.384L125.298,14.384C126.06,14.951 126.441,15.518 126.441,16.32C126.441,16.935 126.251,17.785 125.869,18.682L116.773,41.544C115.867,43.812 114.957,45.418 113.528,46.411L121.154,46.411C120.202,45.512 119.725,44.803 119.725,44.143C119.725,43.434 119.868,42.726 120.154,42.064M124.536,31.2L129.489,18.824L134.061,31.2L124.536,31.2Z" style="fill:rgb(11,46,130);"/>
        </g>
        <g transform="matrix(4.16667,0,0,4.16667,0,0)">
            <path d="M117.931,40.489C114.073,42.662 108.511,43.46 105.415,43.46C98.128,43.46 92.959,37.955 92.959,29.877C92.959,22.509 97.769,17.738 104.914,17.738C107.534,17.738 111.951,18.541 114.713,20.005L114.713,14.856C111.903,14.006 107.581,13.581 105.295,13.581C100.484,13.581 96.198,15.187 92.911,18.163C89.292,21.469 87.291,25.909 87.291,30.35C87.291,36.443 90.194,41.643 94.96,44.473C97.91,46.225 101.51,47.387 105.224,47.387C107.749,47.387 112.596,47.202 115.502,46.252L117.931,40.489Z" style="fill:rgb(11,46,130);"/>
        </g>
        <g transform="matrix(4.16667,0,0,4.16667,0,0)">
            <path d="M83.148,40.742L83.148,20.006C83.148,17.596 83.291,15.896 85.053,14.385L76.194,14.385C77.957,15.896 78.1,17.596 78.1,20.006L78.1,40.742C78.1,43.151 77.957,44.852 76.194,46.411L85.053,46.411C83.291,44.852 83.148,43.151 83.148,40.742" style="fill:rgb(11,46,130);"/>
        </g>
        <g transform="matrix(4.16667,0,0,4.16667,0,0)">
            <path d="M73.669,14.384L66.335,14.384C68.097,15.895 68.24,17.596 68.24,20.005L68.24,38.427L49.141,14.384L42.568,14.384C44.331,15.895 44.473,17.596 44.473,20.005L44.473,40.741C44.473,43.151 44.331,44.851 42.568,46.41L49.903,46.41C48.141,44.851 48.045,43.151 48.045,40.741L48.045,21.28L64.715,42.112C67.144,45.182 69.002,47.077 71.764,47.172L71.764,20.005C71.764,17.596 71.907,15.895 73.669,14.384" style="fill:rgb(11,46,130);"/>
        </g>
        <g transform="matrix(4.16667,0,0,4.16667,0,0)">
            <path d="M30.042,43.765C27.185,43.765 25.089,43.009 23.851,41.497C22.612,39.986 22.423,37.577 22.423,34.081L22.423,20.005C22.423,17.596 22.564,15.896 24.327,14.384L15.468,14.384C17.23,15.896 17.373,17.596 17.373,20.005L17.373,35.074C17.373,38.758 17.792,41.411 19.707,43.623C21.841,46.088 24.635,47.481 28.399,47.481C35.06,47.481 36.947,46.221 39.884,41.54C40.06,41.262 34.378,43.765 30.042,43.765" style="fill:rgb(11,46,130);"/>
        </g>
    </g>
</svg>
