<?xml version="1.0" standalone="no"?>
<!DOCTYPE svg PUBLIC "-//W3C//DTD SVG 1.1//EN" "http://www.w3.org/Graphics/SVG/1.1/DTD/svg11.dtd">
<svg width="100%" height="100%" viewBox="0 0 201 40" version="1.1" xmlns="http://www.w3.org/2000/svg" xmlns:xlink="http://www.w3.org/1999/xlink" xml:space="preserve" style="fill-rule:evenodd;clip-rule:evenodd;stroke-linejoin:round;stroke-miterlimit:1.41421;">
    <g id="XMLID_124_">
        <g id="XMLID_29_">
            <path id="XMLID_30_" d="M149.2,38.4L158.8,38.4C157.1,37.1 156.5,36 156.5,34.1C156.5,33.6 156.6,32.8 156.8,31.6L160.5,7L171,32.3C172.3,35.3 173.6,37.6 175.9,38.9L189,6.9L192.1,33.3C192.2,33.6 192.2,34 192.2,34.2C192.2,36 191.5,37.4 190.1,38.5L200.4,38.5C198.7,36.7 198,34.8 197.7,32.5L194.4,6.8C194.3,5.9 194.3,5.3 194.3,4.9C194.3,3.2 194.7,2.1 195.9,1L186.7,1L175.6,28.8L164.2,0.9L154.5,0.9C155.8,2.1 156.4,2.8 156.4,4.2C156.4,4.9 156.3,5.8 156.1,6.9L152.3,32.1C152,34.6 151.1,36.5 149.2,38.4" style="fill:rgb(38,40,88);"/>
            <g id="XMLID_31_">
                <clipPath id="_clip1">
                    <path d="M149.2,38.4L158.8,38.4C157.1,37.1 156.5,36 156.5,34.1C156.5,33.6 156.6,32.8 156.8,31.6L160.5,7L171,32.3C172.3,35.3 173.6,37.6 175.9,38.9L189,6.9L192.1,33.3C192.2,33.6 192.2,34 192.2,34.2C192.2,36 191.5,37.4 190.1,38.5L200.4,38.5C198.7,36.7 198,34.8 197.7,32.5L194.4,6.8C194.3,5.9 194.3,5.3 194.3,4.9C194.3,3.2 194.7,2.1 195.9,1L186.7,1L175.6,28.8L164.2,0.9L154.5,0.9C155.8,2.1 156.4,2.8 156.4,4.2C156.4,4.9 156.3,5.8 156.1,6.9L152.3,32.1C152,34.6 151.1,36.5 149.2,38.4"/>
                </clipPath>
                <g clip-path="url(#_clip1)">
                    <rect id="XMLID_32_" x="-207.7" y="-30.6" width="1400" height="1530" style="fill:rgb(255,26,36);"/>
                    <rect id="XMLID_33_" x="144.2" y="-4.1" width="61.2" height="48" style="fill:rgb(255,26,36);"/>
                </g>
            </g>
        </g>
        <g id="XMLID_22_">
            <path id="XMLID_23_" d="M127.8,20.6L133.6,6.1L139,20.6L127.8,20.6ZM122.7,33.4L126.3,24.4L140.4,24.4L143.6,33.1C144,34.2 144.4,35 144.4,36C144.4,36.8 143.8,37.4 142.8,38.4L153.6,38.4C151,36.2 150.1,34.3 149.3,32.3L137.3,0.9L128.7,0.9C129.6,1.6 130,2.2 130,3.2C130,3.9 129.8,4.9 129.3,6L118.6,32.8C117.5,35.5 116.5,37.3 114.8,38.5L123.7,38.5C122.6,37.4 122,36.6 122,35.8C122.2,35 122.3,34.1 122.7,33.4Z" style="fill:rgb(255,26,36);"/>
            <g id="XMLID_26_">
                <clipPath id="_clip2">
                    <path d="M127.8,20.6L133.6,6.1L139,20.6L127.8,20.6ZM122.7,33.4L126.3,24.4L140.4,24.4L143.6,33.1C144,34.2 144.4,35 144.4,36C144.4,36.8 143.8,37.4 142.8,38.4L153.6,38.4C151,36.2 150.1,34.3 149.3,32.3L137.3,0.9L128.7,0.9C129.6,1.6 130,2.2 130,3.2C130,3.9 129.8,4.9 129.3,6L118.6,32.8C117.5,35.5 116.5,37.3 114.8,38.5L123.7,38.5C122.6,37.4 122,36.6 122,35.8C122.2,35 122.3,34.1 122.7,33.4Z"/>
                </clipPath>
                <g clip-path="url(#_clip2)">
                    <rect id="XMLID_27_" x="-207.7" y="-30.6" width="1400" height="1530" style="fill:rgb(255,26,36);"/>
                    <rect id="XMLID_28_" x="109.9" y="-4.1" width="48.7" height="47.5" style="fill:rgb(255,26,36);"/>
                </g>
            </g>
        </g>
        <g id="XMLID_17_">
            <path id="XMLID_18_" d="M120.1,31.5C115.6,34 109.1,35 105.4,35C96.9,35 90.8,28.6 90.8,19.1C90.8,10.5 96.4,4.9 104.8,4.9C107.9,4.9 113,5.8 116.3,7.6L116.3,1.6C113,0.6 107.9,0.1 105.3,0.1C99.7,0.1 94.6,2 90.8,5.5C86.6,9.4 84.2,14.6 84.2,19.8C84.2,26.9 87.6,33 93.2,36.3C96.7,38.4 100.9,39.7 105.2,39.7C108.2,39.7 113.8,39.5 117.2,38.4L120.1,31.5Z" style="fill:rgb(255,26,36);"/>
            <g id="XMLID_19_">
                <clipPath id="_clip3">
                    <path d="M120.1,31.5C115.6,34 109.1,35 105.4,35C96.9,35 90.8,28.6 90.8,19.1C90.8,10.5 96.4,4.9 104.8,4.9C107.9,4.9 113,5.8 116.3,7.6L116.3,1.6C113,0.6 107.9,0.1 105.3,0.1C99.7,0.1 94.6,2 90.8,5.5C86.6,9.4 84.2,14.6 84.2,19.8C84.2,26.9 87.6,33 93.2,36.3C96.7,38.4 100.9,39.7 105.2,39.7C108.2,39.7 113.8,39.5 117.2,38.4L120.1,31.5Z"/>
                </clipPath>
                <g clip-path="url(#_clip3)">
                    <rect id="XMLID_20_" x="-207.7" y="-30.6" width="1400" height="1530" style="fill:rgb(255,26,36);"/>
                    <rect id="XMLID_21_" x="79.2" y="-5" width="45.9" height="49.6" style="fill:rgb(255,26,36);"/>
                </g>
            </g>
        </g>
        <g id="XMLID_12_">
            <path id="XMLID_13_" d="M79.3,31.8L79.3,7.5C79.3,4.7 79.5,2.7 81.5,0.9L71.2,0.9C73.3,2.7 73.4,4.7 73.4,7.5L73.4,31.8C73.4,34.6 73.2,36.6 71.2,38.4L81.6,38.4C79.5,36.6 79.3,34.6 79.3,31.8" style="fill:rgb(255,26,36);"/>
            <g id="XMLID_14_">
                <clipPath id="_clip4">
                    <path d="M79.3,31.8L79.3,7.5C79.3,4.7 79.5,2.7 81.5,0.9L71.2,0.9C73.3,2.7 73.4,4.7 73.4,7.5L73.4,31.8C73.4,34.6 73.2,36.6 71.2,38.4L81.6,38.4C79.5,36.6 79.3,34.6 79.3,31.8"/>
                </clipPath>
                <g clip-path="url(#_clip4)">
                    <rect id="XMLID_15_" x="-207.7" y="-30.6" width="1400" height="1530" style="fill:rgb(255,26,36);"/>
                    <rect id="XMLID_16_" x="66.2" y="-4.1" width="20.4" height="47.5" style="fill:rgb(255,26,36);"/>
                </g>
            </g>
        </g>
        <g id="XMLID_7_">
            <path id="XMLID_8_" d="M68.2,0.9L59.6,0.9C61.7,2.7 61.8,4.7 61.8,7.5L61.8,29.1L39.5,0.9L31.8,0.9C33.8,2.7 34,4.7 34,7.5L34,31.8C34,34.6 33.8,36.6 31.8,38.4L40.4,38.4C38.3,36.6 38.2,34.6 38.2,31.8L38.2,9L57.7,33.4C60.5,37 62.7,39.2 66,39.3L66,7.5C66,4.7 66.1,2.7 68.2,0.9" style="fill:rgb(255,26,36);"/>
            <g id="XMLID_9_">
                <clipPath id="_clip5">
                    <path d="M68.2,0.9L59.6,0.9C61.7,2.7 61.8,4.7 61.8,7.5L61.8,29.1L39.5,0.9L31.8,0.9C33.8,2.7 34,4.7 34,7.5L34,31.8C34,34.6 33.8,36.6 31.8,38.4L40.4,38.4C38.3,36.6 38.2,34.6 38.2,31.8L38.2,9L57.7,33.4C60.5,37 62.7,39.2 66,39.3L66,7.5C66,4.7 66.1,2.7 68.2,0.9"/>
                </clipPath>
                <g clip-path="url(#_clip5)">
                    <rect id="XMLID_10_" x="-207.7" y="-30.6" width="1400" height="1530" style="fill:rgb(255,26,36);"/>
                    <rect id="XMLID_11_" x="26.8" y="-4.1" width="46.4" height="48.4" style="fill:rgb(255,26,36);"/>
                </g>
            </g>
        </g>
        <g id="XMLID_2_">
            <path id="XMLID_3_" d="M17.1,35.3C13.8,35.3 11.3,34.4 9.8,32.6C8.3,30.8 8.1,28 8.1,23.9L8.1,7.5C8.1,4.7 8.3,2.7 10.3,0.9L0,0.9C2.1,2.7 2.2,4.7 2.2,7.5L2.2,25.1C2.2,29.4 2.7,32.5 4.9,35.1C7.4,38 10.7,39.6 15.1,39.6C22.9,39.6 25.1,38.1 28.6,32.6C28.8,32.4 22.2,35.3 17.1,35.3" style="fill:rgb(255,26,36);"/>
            <g id="XMLID_4_">
                <clipPath id="_clip6">
                    <path d="M17.1,35.3C13.8,35.3 11.3,34.4 9.8,32.6C8.3,30.8 8.1,28 8.1,23.9L8.1,7.5C8.1,4.7 8.3,2.7 10.3,0.9L0,0.9C2.1,2.7 2.2,4.7 2.2,7.5L2.2,25.1C2.2,29.4 2.7,32.5 4.9,35.1C7.4,38 10.7,39.6 15.1,39.6C22.9,39.6 25.1,38.1 28.6,32.6C28.8,32.4 22.2,35.3 17.1,35.3"/>
                </clipPath>
                <g clip-path="url(#_clip6)">
                    <rect id="XMLID_5_" x="-207.7" y="-30.6" width="1400" height="1530" style="fill:rgb(255,26,36);"/>
                    <rect id="XMLID_6_" x="-5" y="-4.1" width="38.6" height="48.8" style="fill:rgb(255,26,36);"/>
                </g>
            </g>
        </g>
    </g>
</svg>
